<?xml version="1.0" standalone="no"?>
<!DOCTYPE svg PUBLIC "-//W3C//DTD SVG 20010904//EN"
 "http://www.w3.org/TR/2001/REC-SVG-20010904/DTD/svg10.dtd">
<svg version="1.0" xmlns="http://www.w3.org/2000/svg"
 width="100%" height="auto" viewBox="0 0 2048 1683"
 preserveAspectRatio="xMidYMid meet">

<g transform="translate(0.000000,1683.000000) scale(0.100000,-0.100000)"
fill="#000000" stroke="none">
<path d="M7198 11932 c-1 -4 -24 -23 -50 -42 -43 -30 -48 -37 -48 -72 0 -28 7
-45 24 -61 13 -12 40 -53 60 -90 20 -37 46 -83 56 -103 11 -19 20 -48 20 -64
0 -16 5 -32 10 -35 12 -7 13 -45 2 -45 -5 0 -34 18 -65 40 -30 22 -60 40 -66
40 -6 0 -11 5 -11 10 0 6 -4 10 -9 10 -6 0 -22 11 -37 25 -18 16 -39 25 -60
25 -19 0 -34 5 -34 10 0 6 -5 10 -12 10 -6 0 -36 12 -67 27 -86 40 -198 80
-266 94 -175 36 -281 49 -410 48 -158 0 -374 -28 -450 -59 -11 -4 -40 -14 -64
-21 -57 -17 -71 -32 -71 -78 l0 -37 78 -13 c42 -7 87 -17 100 -22 13 -5 38 -9
57 -9 19 0 37 -4 40 -10 3 -5 22 -10 41 -10 19 0 34 -4 34 -9 0 -5 -84 -9
-195 -10 -189 0 -353 -17 -397 -41 -10 -6 -30 -10 -46 -10 -15 0 -32 -4 -38
-8 -11 -10 -76 -29 -127 -37 -21 -3 -57 -16 -80 -29 -23 -13 -77 -42 -119 -65
-43 -23 -90 -53 -104 -66 -15 -14 -37 -25 -49 -25 -13 0 -28 -7 -36 -16 -7 -8
-25 -22 -41 -30 -30 -16 -39 -37 -10 -27 9 4 19 9 22 13 8 9 76 40 90 40 7 0
6 -5 -4 -15 -8 -8 -19 -15 -25 -15 -6 0 -11 -4 -11 -10 0 -5 -6 -10 -14 -10
-7 0 -19 -7 -26 -15 -13 -16 -1 -21 16 -6 11 10 94 57 144 81 19 10 54 20 76
24 23 3 59 15 80 25 47 24 131 51 156 51 10 0 18 5 18 10 0 6 17 10 38 10 21
0 42 4 48 9 5 5 29 11 54 14 25 3 88 11 140 17 122 15 425 7 545 -15 50 -9
108 -19 130 -22 22 -3 44 -9 50 -14 5 -5 17 -9 27 -9 22 0 68 28 68 42 0 5 12
19 26 31 39 34 39 102 -1 148 -38 45 -68 59 -123 59 -26 0 -41 4 -37 10 3 6
28 10 55 10 27 0 52 -4 55 -10 3 -5 32 -10 64 -10 54 0 145 -23 166 -41 5 -5
19 -9 32 -9 13 0 23 -4 23 -8 0 -4 20 -13 44 -20 24 -6 51 -18 59 -27 9 -8 20
-15 24 -15 5 0 33 -11 61 -25 29 -14 63 -25 77 -25 14 0 25 -4 25 -8 0 -5 26
-22 58 -38 31 -16 59 -32 60 -36 2 -5 8 -8 13 -8 6 0 21 -11 34 -24 13 -13 37
-30 54 -37 17 -8 31 -17 31 -21 0 -4 18 -12 40 -18 21 -6 46 -18 55 -27 17
-16 17 -16 85 21 34 19 37 311 4 375 -15 29 -18 61 -6 61 8 0 53 -29 62 -40 3
-3 14 -13 26 -21 40 -27 114 -97 114 -108 0 -6 5 -11 10 -11 6 0 10 -6 10 -13
0 -8 11 -24 25 -37 14 -13 25 -31 25 -41 0 -10 5 -21 10 -24 6 -4 10 -63 10
-145 0 -114 -3 -145 -18 -172 -9 -18 -26 -58 -36 -88 -11 -30 -28 -69 -37 -87
-12 -20 -14 -35 -8 -38 5 -4 7 -15 4 -26 -13 -41 81 -17 245 61 8 3 23 23 35
43 11 20 27 45 35 54 8 10 23 34 32 53 10 19 22 42 26 50 26 45 32 63 32 94 0
49 26 55 45 9 10 -24 15 -70 15 -145 l0 -110 -57 -117 c-31 -64 -65 -123 -75
-132 -10 -9 -18 -21 -18 -26 0 -6 -7 -16 -15 -23 -8 -7 -15 -21 -15 -32 0 -24
-32 -72 -76 -113 -17 -16 -46 -50 -63 -75 -30 -41 -31 -45 -15 -57 10 -7 12
-13 6 -13 -7 0 -12 -4 -12 -10 0 -29 124 6 168 48 7 6 20 12 28 12 8 0 14 3
14 8 0 4 14 13 30 21 17 7 47 28 67 47 20 19 39 34 44 34 8 0 119 124 119 134
0 10 43 56 53 56 9 0 4 -101 -8 -157 -4 -18 -11 -33 -16 -33 -5 0 -9 -4 -9
-10 0 -15 -53 -125 -62 -128 -4 -2 -8 -8 -8 -13 0 -6 -11 -20 -25 -33 -14 -13
-25 -27 -25 -31 0 -4 -9 -20 -20 -35 -18 -25 -18 -30 -6 -43 8 -8 12 -18 8
-23 -4 -5 9 7 28 26 19 19 49 54 66 77 17 24 34 40 37 36 4 -3 7 -1 7 6 0 7 7
19 15 27 8 9 15 26 15 39 0 22 28 82 51 110 7 10 24 66 35 125 3 14 9 34 14
45 23 54 35 326 17 380 -13 40 -12 39 -44 22 -15 -9 -36 -18 -45 -21 -12 -4
-18 -16 -18 -35 0 -16 -4 -33 -10 -36 -5 -3 -10 -19 -10 -36 0 -16 -4 -29 -10
-29 -5 0 -10 -6 -10 -14 0 -7 -21 -56 -48 -107 -43 -85 -63 -116 -99 -154 -7
-8 -13 -21 -13 -29 0 -17 -52 -71 -84 -88 -24 -13 -19 -4 39 68 14 18 25 37
25 43 0 6 5 11 10 11 6 0 10 9 10 20 0 11 3 20 8 20 4 0 13 15 21 33 7 17 29
64 47 102 46 95 56 147 61 303 4 133 -5 187 -41 256 -16 30 -95 106 -110 106
-7 0 -26 -11 -41 -24 -16 -14 -48 -35 -72 -47 l-43 -22 0 -134 c0 -82 -4 -133
-10 -133 -5 0 -10 -10 -10 -22 0 -42 -107 -178 -140 -178 -10 0 -3 27 13 48 5
6 6 12 1 12 -4 0 -3 5 4 12 7 7 12 20 12 30 0 10 5 18 10 18 6 0 10 9 10 19 0
11 5 21 12 23 16 6 18 305 2 339 -7 13 -24 56 -40 94 -15 39 -36 76 -46 83
-10 7 -18 20 -18 29 0 30 -85 127 -137 158 -18 11 -33 23 -33 29 0 11 -19 26
-105 83 -38 25 -71 50 -73 54 -5 11 -89 12 -94 1z m-2288 -742 c0 -5 -4 -10
-9 -10 -6 0 -13 5 -16 10 -3 6 1 10 9 10 9 0 16 -4 16 -10z"/>
<path d="M5166 10382 c-3 -3 -6 -46 -6 -96 0 -90 0 -91 28 -103 15 -6 38 -13
52 -16 44 -10 174 -49 192 -58 10 -5 30 -9 45 -9 24 0 53 -8 166 -46 9 -4 17
-10 17 -15 0 -5 12 -9 26 -9 14 0 23 -4 19 -10 -7 -12 -48 -13 -59 -2 -21 20
-382 57 -556 56 -187 0 -525 -36 -546 -57 -4 -4 -21 -7 -37 -7 -17 0 -44 -4
-61 -9 -17 -6 -58 -17 -91 -26 -101 -28 -129 -37 -147 -46 -10 -5 -30 -9 -45
-9 -37 -1 -131 -33 -154 -54 -11 -9 -24 -16 -29 -16 -13 0 -153 -68 -160 -78
-10 -14 -59 -42 -74 -42 -40 0 -132 -75 -142 -116 -7 -28 -2 -180 7 -188 6 -6
104 26 116 37 3 4 15 7 25 7 10 0 18 5 18 10 0 6 8 10 18 10 9 0 26 7 36 15
11 8 30 15 43 15 13 0 23 5 23 10 0 6 10 10 23 10 13 0 28 5 35 12 9 9 15 9
24 0 9 -9 7 -12 -10 -12 -12 0 -22 -4 -22 -10 0 -5 -9 -10 -19 -10 -11 0 -21
-3 -23 -7 -1 -5 -19 -16 -38 -26 -19 -9 -53 -28 -75 -42 -22 -14 -56 -34 -75
-45 -106 -61 -161 -103 -241 -180 -20 -19 -45 -42 -55 -51 -11 -9 -28 -27 -39
-40 -70 -86 -95 -118 -95 -124 0 -3 -16 -31 -35 -61 -19 -30 -35 -59 -35 -64
0 -6 -4 -10 -8 -10 -4 0 -13 -12 -19 -27 -6 -16 -18 -39 -26 -53 -32 -55 -67
-158 -67 -195 0 -26 6 -21 43 44 23 40 49 83 57 96 8 12 24 37 35 54 10 17 23
31 27 31 4 0 17 19 28 43 25 51 76 107 130 143 22 15 40 32 40 39 0 22 131
124 220 171 30 16 57 32 58 37 2 4 8 7 13 7 5 0 28 11 50 26 79 50 108 63 176
80 37 9 70 20 73 24 3 3 34 14 70 24 36 10 70 22 75 26 6 4 24 10 40 14 40 9
84 20 179 45 43 12 88 21 100 21 12 0 26 4 32 9 5 5 30 12 57 15 26 3 67 9 92
12 l45 6 0 98 0 98 -31 11 c-48 17 -160 13 -294 -10 -66 -11 -135 -23 -152
-26 -21 -3 -33 -1 -33 6 0 6 11 11 24 11 14 0 28 5 31 10 3 6 16 10 28 10 12
0 40 7 62 15 22 8 57 14 77 15 20 0 39 4 42 9 6 9 27 13 191 33 129 16 600 16
730 0 172 -21 389 -63 426 -83 10 -5 29 -9 43 -9 14 0 26 -4 26 -10 0 -14 49
-12 63 3 34 35 47 69 47 124 0 50 -5 66 -34 108 -44 66 -98 122 -121 126 -10
2 -20 9 -22 16 -3 8 6 8 34 1 21 -6 58 -12 83 -15 25 -2 64 -13 87 -24 24 -10
46 -19 49 -19 8 0 75 -29 94 -41 8 -5 31 -17 50 -27 19 -9 37 -20 38 -24 2 -5
10 -8 18 -8 8 0 14 -4 14 -10 0 -5 16 -12 35 -16 20 -3 51 -20 69 -38 19 -17
53 -49 77 -72 107 -99 169 -230 169 -357 0 -37 2 -67 5 -67 20 0 63 43 101
102 25 37 49 68 54 68 6 0 10 33 10 73 0 43 5 78 12 85 9 9 9 15 0 24 -7 7
-12 22 -12 35 0 12 -12 43 -26 69 -14 25 -23 48 -20 51 6 7 66 -20 66 -29 0
-5 6 -8 14 -8 12 0 147 -115 154 -132 2 -5 12 -8 22 -8 21 0 47 -34 76 -95 10
-22 28 -51 40 -64 12 -12 27 -42 34 -65 6 -22 16 -49 21 -58 12 -24 12 -178
-1 -178 -5 0 -10 -8 -10 -19 0 -10 -16 -48 -35 -85 -29 -55 -35 -78 -35 -128
0 -58 1 -60 23 -53 12 3 39 10 60 15 44 9 87 45 87 72 0 10 4 26 9 36 43 81
65 209 60 348 -4 97 7 114 32 51 7 -18 15 -34 18 -37 8 -7 29 -51 36 -77 4
-13 11 -23 16 -23 5 0 9 -18 9 -40 0 -22 5 -40 10 -40 6 0 10 -13 10 -30 0
-16 4 -30 8 -30 9 0 40 -122 46 -180 2 -19 3 40 2 132 -1 119 -5 171 -13 180
-7 6 -13 21 -13 33 0 21 -31 109 -43 121 -4 4 -7 18 -7 30 0 29 -90 184 -107
184 -7 0 -13 3 -13 8 0 10 -46 62 -55 62 -8 0 1 -227 15 -365 5 -49 6 -103 3
-120 -3 -16 -7 -49 -10 -73 -4 -33 -11 -46 -34 -59 -16 -10 -29 -21 -29 -26 0
-4 -5 -5 -10 -2 -7 4 -8 11 -2 18 14 18 23 80 29 192 5 109 -2 146 -51 258 -9
21 -16 42 -16 48 0 6 -6 16 -12 24 -7 7 -22 25 -33 41 -11 15 -26 33 -32 40
-7 7 -13 20 -13 29 0 19 -88 115 -105 115 -7 0 -30 17 -51 39 -43 42 -166 121
-189 121 -8 0 -15 5 -15 10 0 6 -12 10 -27 10 -16 0 -50 7 -77 15 -29 9 -54
11 -59 6 -4 -4 -11 -43 -14 -85 -5 -66 -4 -76 11 -76 9 0 16 -4 16 -9 0 -5 15
-14 33 -20 35 -12 117 -100 117 -126 0 -19 31 -75 41 -75 4 0 7 -11 7 -25 0
-14 -3 -25 -7 -25 -3 0 -19 -20 -34 -45 -40 -63 -38 -64 -79 48 -6 17 -22 49
-35 69 -13 21 -23 40 -23 43 0 3 -11 23 -25 43 -14 20 -25 44 -25 54 0 9 -7
21 -15 25 -8 5 -55 48 -104 96 -49 48 -95 87 -103 87 -7 0 -33 14 -58 31 -25
16 -55 34 -67 39 -13 5 -23 14 -23 20 0 5 -7 10 -15 10 -8 0 -30 9 -50 20 -20
11 -40 20 -45 20 -6 0 -33 11 -62 25 -29 14 -70 25 -92 25 -23 0 -60 7 -84 15
-23 8 -79 22 -125 31 -74 14 -115 20 -257 38 -70 8 -288 15 -294 8z"/>
<path d="M8590 10358 c0 -29 61 -68 107 -68 16 0 37 -6 48 -14 11 -7 31 -16
45 -19 25 -6 74 -19 140 -38 35 -11 141 -36 193 -46 15 -3 30 -9 33 -14 3 -5
15 -9 27 -9 12 0 39 -6 60 -14 27 -9 51 -10 85 -4 26 5 63 11 82 14 19 3 44 9
55 14 23 10 193 50 245 57 19 2 44 8 55 13 11 5 34 11 50 13 17 3 39 8 50 11
14 5 29 -2 51 -23 18 -17 35 -27 38 -24 12 13 5 35 -19 58 -21 22 -33 25 -94
25 -39 0 -80 -4 -93 -9 -13 -5 -54 -16 -93 -24 -38 -9 -101 -24 -140 -33 -197
-47 -229 -51 -276 -37 -204 63 -332 95 -399 100 -55 4 -64 7 -175 60 -33 15
-63 29 -67 31 -5 2 -8 -7 -8 -20z"/>
<path d="M8818 10133 c39 -38 72 -74 72 -81 0 -7 4 -12 9 -12 5 0 12 -8 14
-17 3 -10 5 -4 6 14 1 24 -8 42 -33 70 -19 21 -43 48 -53 60 -10 13 -34 26
-53 29 -35 7 -34 6 38 -63z"/>
<path d="M9806 10133 c-11 -27 8 -34 21 -7 9 19 8 24 -2 24 -7 0 -16 -8 -19
-17z"/>
<path d="M8010 10065 c-63 -7 -151 -21 -195 -30 -44 -9 -93 -19 -110 -21 -16
-3 -39 -9 -50 -14 -11 -5 -56 -21 -100 -35 -44 -15 -82 -31 -85 -35 -3 -4 -16
-10 -30 -12 l-25 -3 24 -14 c18 -10 25 -10 31 -1 4 6 36 15 71 20 62 8 82 13
124 30 54 23 292 59 420 65 201 8 534 -26 630 -66 11 -4 35 -11 53 -14 29 -6
32 -4 32 17 0 20 -9 27 -52 41 -29 9 -66 18 -83 21 -16 3 -77 14 -135 24 -111
21 -314 43 -371 41 -19 -1 -86 -7 -149 -14z"/>
<path d="M10145 10025 c-5 -3 -44 -9 -85 -15 -154 -21 -162 -24 -171 -48 -9
-23 -8 -24 43 -19 29 3 89 11 133 17 165 24 326 -9 398 -80 20 -21 37 -43 37
-49 0 -6 3 -11 8 -11 4 0 13 -13 20 -30 17 -38 35 -40 21 -2 -20 53 -34 82
-40 82 -4 0 -9 9 -12 20 -3 11 -13 23 -24 27 -10 4 -23 12 -29 17 -56 52 -96
70 -192 85 -75 11 -90 12 -107 6z"/>
<path d="M8931 9975 c-1 -30 30 -90 42 -79 3 3 -3 21 -13 38 -10 18 -20 42
-23 52 -3 12 -5 9 -6 -11z"/>
<path d="M9343 9934 c-39 -18 -53 -30 -54 -47 -2 -27 1 -90 6 -114 2 -10 4
-22 4 -28 1 -5 20 -19 43 -30 53 -25 150 -27 197 -2 19 9 40 17 47 17 28 0 46
128 24 171 -6 10 -16 19 -23 19 -7 0 -32 9 -55 20 -56 27 -124 25 -189 -6z"/>
<path d="M8105 9930 c3 -6 50 -10 106 -10 66 0 112 -5 136 -15 19 -8 47 -15
61 -15 30 0 102 -20 119 -33 18 -13 53 1 46 19 -10 27 -60 44 -132 44 -38 0
-73 5 -76 10 -4 6 -60 10 -136 10 -84 0 -128 -4 -124 -10z"/>
<path d="M8055 9874 c-16 -3 -39 -8 -50 -13 -11 -5 -54 -16 -95 -26 -41 -10
-79 -22 -84 -26 -6 -5 -22 -9 -36 -9 -14 0 -30 -4 -35 -8 -6 -5 -29 -14 -53
-21 -25 -7 -42 -17 -39 -24 7 -22 76 -19 155 8 121 40 137 45 160 45 12 0 30
4 40 9 20 11 214 41 266 41 20 0 36 5 36 10 0 6 -31 10 -74 10 -40 0 -93 2
-117 4 -24 2 -57 2 -74 0z"/>
<path d="M10003 9821 c-45 -14 -85 -30 -89 -34 -4 -4 -14 -7 -21 -7 -8 0 -31
-11 -51 -25 -20 -14 -49 -25 -63 -25 -31 0 -46 -25 -22 -39 17 -9 83 15 83 31
0 4 15 8 33 8 18 0 37 4 43 8 5 5 36 17 69 26 33 10 73 22 88 28 28 11 251 6
350 -8 48 -7 68 9 25 19 -13 3 -50 15 -82 26 -90 32 -253 28 -363 -8z"/>
<path d="M8195 9754 c-71 -11 -52 -19 60 -26 148 -8 256 -21 272 -31 7 -4 23
-5 37 -1 40 10 11 28 -65 42 -74 13 -257 23 -304 16z"/>
<path d="M10204 9708 c-32 -19 -167 -48 -224 -48 -23 0 -45 -9 -65 -26 l-30
-25 105 5 c163 9 257 44 249 92 -4 20 -5 20 -35 2z"/>
<path d="M8160 9679 c-19 -6 -50 -13 -67 -16 -18 -3 -33 -9 -33 -14 0 -5 -7
-9 -15 -9 -8 0 -23 -4 -33 -10 -9 -5 -64 -32 -122 -60 -57 -28 -107 -54 -110
-59 -3 -4 -26 -22 -52 -41 -48 -33 -60 -54 -36 -62 13 -5 148 88 148 100 0 9
67 39 105 47 17 4 46 13 65 22 63 27 74 31 172 57 54 14 114 26 135 26 24 0
34 3 27 10 -14 14 -144 21 -184 9z"/>
<path d="M8300 9560 c-14 -4 -48 -8 -77 -9 -50 -1 -122 -27 -123 -45 0 -4 19
-5 43 -2 23 3 76 10 117 16 41 5 89 12 107 16 24 5 40 1 63 -16 30 -21 63 -24
64 -5 0 6 -17 20 -39 32 -41 22 -108 28 -155 13z"/>
<path d="M9810 9560 c-8 -5 -25 -10 -37 -10 -27 0 -113 -50 -113 -66 0 -6 -30
-40 -67 -75 -77 -72 -103 -108 -103 -140 0 -17 9 -9 41 34 22 32 46 57 53 57
6 0 36 26 66 58 35 36 80 70 122 91 37 18 69 40 72 47 6 16 -12 18 -34 4z"/>
<path d="M8139 9436 c-25 -6 -58 -21 -75 -33 -16 -11 -48 -31 -71 -44 -64 -36
-141 -107 -159 -145 -9 -19 -15 -37 -13 -39 3 -2 25 15 49 39 25 23 65 57 89
74 24 18 51 41 58 52 8 11 26 20 41 21 32 1 144 58 150 77 5 15 -9 14 -69 -2z"/>
<path d="M8205 9300 c-3 -5 -18 -10 -33 -10 -26 0 -102 -45 -102 -61 0 -12 26
-11 69 2 20 6 49 15 65 20 17 5 32 5 35 1 11 -14 51 -32 71 -32 34 0 22 24
-30 58 -53 34 -65 38 -75 22z"/>
<path d="M8820 9230 c0 -5 -6 -10 -14 -10 -8 0 -27 -6 -43 -14 -15 -8 -44 -22
-63 -30 -34 -14 -93 -58 -114 -84 -6 -8 -30 -35 -53 -61 -24 -27 -43 -57 -43
-67 1 -18 2 -18 18 2 10 12 28 26 40 33 12 6 22 18 22 26 0 7 15 24 33 36 17
13 34 26 37 30 3 4 28 19 55 34 28 16 52 31 55 34 21 26 122 42 135 21 3 -5
15 -10 25 -10 28 0 15 26 -21 42 -16 7 -29 16 -29 20 0 5 -9 8 -20 8 -11 0
-20 -4 -20 -10z"/>
<path d="M9470 9213 c0 -12 -4 -25 -10 -28 -5 -3 -10 -13 -10 -21 0 -8 5 -14
10 -14 6 0 10 8 10 18 0 10 4 22 10 28 6 6 6 15 0 24 -8 12 -10 11 -10 -7z"/>
<path d="M8388 9206 c-9 -8 -28 -17 -44 -20 -30 -6 -111 -79 -94 -84 14 -5
121 48 141 71 21 22 58 21 89 -3 31 -25 60 -26 60 -2 0 32 -126 64 -152 38z"/>
<path d="M8113 9155 c-7 -8 -13 -17 -13 -20 0 -3 -16 -32 -37 -63 -34 -54 -83
-141 -83 -148 0 -2 7 -4 15 -4 9 0 15 9 15 21 0 12 8 29 18 38 19 17 122 173
122 184 0 12 -24 7 -37 -8z"/>
<path d="M7516 8944 c-9 -8 -19 -26 -22 -40 -3 -13 -10 -24 -15 -24 -5 0 -9
-13 -9 -30 0 -17 -5 -30 -12 -30 -7 0 -24 -15 -37 -33 -13 -17 -48 -51 -78
-75 -51 -41 -53 -44 -49 -85 3 -23 5 -48 5 -55 1 -18 40 10 114 81 44 42 57
61 57 83 0 16 10 47 21 69 18 33 52 155 43 155 -1 0 -10 -7 -18 -16z"/>
<path d="M4875 8501 c-39 -6 -43 -8 -20 -10 17 -2 43 -2 58 -1 27 2 158 -16
187 -26 12 -4 12 -6 1 -14 -10 -6 -2 -12 30 -20 24 -7 49 -16 56 -22 13 -11
79 -3 103 12 12 8 10 10 -7 10 -13 0 -23 5 -23 10 0 6 11 10 25 10 47 0 25 17
-42 34 -76 19 -290 28 -368 17z"/>
<path d="M4640 8468 c-30 -5 -75 -11 -100 -14 -55 -6 -55 -6 -210 -84 -69 -34
-136 -73 -149 -86 -13 -13 -33 -24 -43 -24 -21 0 -138 -77 -138 -91 0 -13 -83
-88 -97 -89 -7 0 -26 -18 -41 -39 -21 -29 -28 -48 -24 -70 4 -29 7 -31 46 -32
22 -1 51 0 64 1 l23 2 -22 -26 c-13 -14 -28 -26 -35 -26 -15 0 -94 -86 -94
-103 0 -8 -15 -34 -32 -58 -38 -51 -68 -113 -68 -140 0 -10 -4 -21 -10 -24
-11 -7 -14 -193 -4 -219 5 -12 21 -16 69 -16 l62 0 19 42 c17 39 97 128 153
172 13 10 56 33 95 52 125 60 143 39 31 -37 -19 -13 -35 -27 -35 -31 0 -5 -9
-8 -21 -8 -20 0 -79 -50 -79 -67 0 -9 -33 -49 -79 -98 -26 -27 -59 -85 -89
-155 -6 -14 -11 -36 -11 -50 0 -14 -7 -72 -16 -130 -17 -109 -16 -161 4 -320
17 -141 24 -162 95 -311 25 -53 46 -101 46 -106 0 -23 28 -30 100 -24 l75 6 5
235 c5 233 6 235 34 293 30 60 46 72 46 34 0 -13 4 -27 8 -33 4 -5 21 -48 37
-96 16 -49 32 -88 37 -88 4 0 8 -5 8 -10 0 -6 16 -43 35 -83 19 -39 35 -75 35
-80 0 -15 86 -143 123 -184 22 -23 46 -55 54 -70 19 -37 114 -133 132 -133 7
0 34 -23 59 -50 25 -28 62 -61 81 -72 20 -12 38 -25 41 -28 3 -3 41 -27 85
-53 44 -25 100 -59 124 -74 69 -43 164 -92 181 -93 8 0 40 -12 70 -26 30 -15
64 -30 75 -34 22 -8 129 -57 160 -73 28 -14 175 -22 175 -9 0 5 -8 13 -17 17
-15 6 -14 9 10 20 l29 12 -54 38 c-29 21 -54 42 -56 47 -2 4 -11 8 -19 8 -18
0 -103 51 -103 63 0 4 -4 7 -9 7 -6 0 -33 22 -61 49 -28 27 -66 56 -84 65 -38
18 -86 60 -86 76 0 6 -7 18 -15 26 -8 9 -15 21 -15 27 1 7 8 3 18 -8 23 -27
88 -75 101 -75 6 0 11 -4 11 -9 0 -4 20 -14 44 -21 25 -7 47 -18 50 -26 3 -8
12 -14 21 -14 8 0 15 -4 15 -10 0 -5 6 -10 14 -10 8 0 50 -20 94 -45 44 -25
83 -45 87 -45 7 0 68 -26 97 -41 10 -5 26 -9 35 -9 28 0 158 -34 161 -42 2 -5
14 -8 27 -8 13 0 27 -4 30 -10 3 -5 20 -10 37 -10 16 0 56 -6 87 -14 92 -22
222 -38 281 -34 l55 4 -62 2 c-34 1 -65 7 -68 12 -3 6 -28 10 -55 10 -27 0
-52 5 -55 10 -3 6 -22 10 -41 10 -23 0 -33 4 -28 11 4 7 19 8 38 4 79 -16 366
-35 426 -28 l65 8 -90 6 c-180 13 -370 40 -423 60 -13 5 -42 9 -65 9 -39 0
-99 16 -157 42 -14 6 -36 15 -50 21 -94 37 -130 54 -195 92 -33 19 -70 35 -82
35 -12 0 -23 4 -25 8 -1 5 -37 30 -78 56 -41 27 -90 64 -108 82 -18 19 -41 34
-51 34 -10 0 -30 11 -44 24 -14 13 -39 33 -56 45 -17 12 -31 27 -31 32 0 12
-81 88 -93 89 -4 0 -19 7 -32 16 -20 13 -48 16 -132 15 -61 -1 -110 -7 -114
-12 -3 -6 -4 -43 -1 -82 3 -50 10 -77 23 -91 11 -11 19 -23 19 -28 0 -4 6 -8
13 -8 8 0 51 -36 96 -80 45 -44 97 -86 114 -94 31 -13 119 -86 103 -86 -9 0
-117 59 -131 71 -5 5 -17 9 -26 9 -10 0 -19 4 -21 8 -1 5 -23 22 -48 39 -25
17 -56 41 -70 53 -14 12 -35 29 -47 37 -13 9 -23 22 -23 29 0 8 -7 14 -15 14
-20 0 -165 141 -165 161 0 9 -11 24 -25 33 -14 9 -50 52 -80 95 -30 43 -62 84
-70 91 -8 7 -15 22 -15 34 0 23 -46 120 -71 148 -9 10 -24 44 -35 76 -10 31
-27 72 -36 90 -10 18 -18 41 -18 52 0 10 -4 22 -10 25 -5 3 -10 28 -10 54 0
27 -3 69 -6 95 l-7 46 -76 0 -77 0 -54 -53 c-73 -71 -81 -82 -113 -155 -17
-40 -27 -81 -27 -112 0 -27 -4 -52 -10 -55 -6 -3 -10 5 -10 19 0 14 -4 28 -10
31 -5 3 -10 16 -10 29 0 12 -6 28 -12 34 -9 9 -13 53 -13 145 0 129 3 144 40
232 7 17 16 46 20 65 4 19 13 47 21 61 20 40 212 229 232 229 9 0 42 15 72 33
30 17 69 38 85 46 17 7 38 17 47 22 10 5 27 9 39 9 19 0 19 1 5 16 -20 19 -12
34 17 34 17 0 18 3 9 12 -15 15 -127 30 -232 30 -133 1 -272 -27 -293 -60 -4
-6 -20 -18 -35 -26 -15 -8 -40 -26 -57 -40 -50 -43 -58 -31 -24 35 11 23 37
60 58 82 21 23 45 56 54 72 18 35 90 105 109 105 7 0 38 23 68 50 30 27 95 70
145 95 91 45 135 55 375 85 71 9 138 25 148 35 4 3 0 10 -7 14 -11 7 -10 11 4
19 21 11 14 39 -12 49 -10 4 -21 11 -25 17 -10 15 -425 13 -441 -3 -6 -6 -21
-11 -34 -11 -13 0 -32 -6 -43 -12 -15 -10 -22 -10 -32 0 -9 9 -8 12 5 12 9 0
17 5 17 10 0 6 12 10 26 10 14 0 39 9 55 21 16 11 68 38 116 60 49 22 97 44
108 49 11 5 43 16 70 25 l50 15 -70 -3 c-38 -2 -60 -2 -47 0 12 2 22 9 22 14
0 5 27 9 60 9 47 0 60 3 60 15 0 16 0 16 -80 3z m34 -312 c-5 -14 -44 -22
-139 -29 -27 -3 -38 -2 -22 0 15 2 27 8 27 14 0 5 23 9 50 9 28 0 50 5 50 10
0 6 9 10 20 10 12 0 17 -5 14 -14z m-217 -52 c-3 -3 -12 -4 -19 -1 -8 3 -5 6
6 6 11 1 17 -2 13 -5z"/>
<path d="M7420 8109 c-30 -15 -65 -28 -78 -29 -12 0 -40 -11 -62 -25 -22 -14
-42 -25 -45 -25 -8 0 -115 -70 -163 -107 -24 -18 -53 -33 -64 -33 -11 0 -37
-17 -58 -37 -21 -21 -53 -50 -71 -65 -19 -14 -47 -38 -64 -52 -16 -14 -35 -26
-42 -26 -6 0 -21 -12 -33 -27 -43 -56 -152 -163 -166 -163 -8 0 -14 -8 -14
-18 0 -10 -40 -60 -90 -111 -49 -52 -90 -99 -90 -105 -1 -6 -23 -36 -50 -66
-28 -30 -50 -58 -50 -62 0 -5 -8 -8 -17 -8 -18 -1 -72 -43 -74 -57 0 -4 -39
-34 -87 -65 -96 -63 -243 -178 -282 -219 -14 -15 -34 -30 -46 -33 -11 -4 -42
-25 -68 -49 l-48 -42 -5 -109 -6 -110 29 20 c16 11 47 29 69 39 22 11 46 26
53 33 21 19 89 52 109 52 9 0 58 20 107 44 116 56 161 76 175 76 6 0 11 5 11
10 0 6 9 10 20 10 11 0 20 5 20 10 0 6 11 10 25 10 14 0 25 5 25 10 0 6 19 10
43 10 23 1 60 7 82 15 22 8 50 15 63 15 12 0 22 5 22 10 0 6 14 10 30 10 17 0
30 4 30 8 0 4 37 16 83 25 45 10 90 22 99 27 10 6 33 10 51 10 18 0 37 4 43 9
5 5 27 11 49 14 22 3 52 9 68 12 23 6 27 4 27 -13 0 -11 -3 -22 -8 -24 -4 -1
-22 -22 -40 -45 -19 -24 -38 -43 -44 -43 -5 0 -16 -7 -24 -15 -14 -13 -14 -16
2 -22 16 -6 16 -7 -2 -20 -28 -20 1 -15 41 7 20 11 48 20 63 20 18 0 45 15 80
46 46 40 52 50 52 85 l0 39 130 0 c72 0 130 -4 130 -8 0 -5 -13 -20 -29 -34
-15 -14 -35 -34 -42 -44 -22 -29 -106 -94 -122 -94 -41 0 -62 -84 -34 -143 14
-31 24 -33 46 -9 20 21 70 56 94 65 9 3 17 13 17 20 0 8 10 19 23 26 12 6 36
20 52 30 17 11 40 20 53 20 13 1 34 12 48 26 14 14 31 25 39 25 8 0 15 4 15 8
0 4 24 17 52 27 29 10 62 27 72 37 11 10 26 18 34 18 16 0 75 31 80 43 2 4 11
7 21 7 9 0 41 23 71 51 56 52 92 75 146 94 35 13 46 5 69 -48 l14 -32 1 50 c0
28 3 60 6 72 5 16 -3 31 -28 57 -56 58 -94 54 -173 -19 -32 -30 -60 -55 -62
-55 -7 0 -163 -112 -169 -121 -8 -13 -74 -40 -84 -34 -4 3 -4 22 1 42 16 70
31 66 -208 59 -283 -7 -574 -34 -615 -57 -10 -5 -31 -9 -47 -9 -17 0 -33 -4
-36 -10 -3 -5 -18 -10 -33 -10 -15 0 -40 -7 -56 -15 -15 -8 -49 -15 -75 -15
-26 0 -51 -4 -56 -9 -6 -4 -23 -11 -39 -15 -26 -6 -27 -5 -13 9 9 8 18 15 22
15 8 0 79 53 83 63 2 4 9 7 15 7 7 0 25 16 41 35 16 19 35 35 43 35 7 0 13 5
13 10 0 6 12 15 28 22 59 23 92 43 92 54 0 6 13 17 30 24 16 7 34 18 41 26 6
7 31 24 55 36 24 12 52 30 61 40 9 10 22 18 30 18 20 0 136 58 149 75 5 7 22
17 37 20 15 4 30 11 33 16 3 5 14 9 24 9 10 0 20 3 22 8 6 14 80 42 113 42 18
0 37 5 40 10 3 6 15 10 26 10 10 0 19 5 19 10 0 6 10 10 23 10 13 0 27 4 33 9
5 4 24 13 42 19 25 9 32 8 32 -2 0 -16 -84 -94 -117 -109 -28 -13 -30 -27 -3
-27 11 0 20 5 20 10 0 6 7 10 15 10 22 0 18 -17 -7 -34 -12 -9 -17 -16 -11
-16 15 0 77 33 81 43 2 4 7 7 12 7 5 0 31 14 59 31 50 31 51 33 51 79 0 41 3
48 23 53 12 3 46 12 74 20 29 8 55 11 58 7 6 -10 -62 -113 -97 -148 -20 -19
-22 -31 -20 -85 2 -34 8 -63 13 -65 5 -2 9 -17 9 -33 0 -19 5 -29 15 -29 8 0
15 4 15 10 0 5 23 32 50 59 28 28 50 57 50 65 0 16 136 156 150 156 4 0 15 15
24 34 9 18 35 50 58 70 24 20 55 48 70 62 27 26 68 95 68 115 0 16 59 68 94
83 25 11 33 11 57 -3 16 -9 29 -20 29 -24 0 -10 26 -37 35 -37 4 0 5 6 2 13
-2 6 0 22 4 35 9 24 -13 106 -35 127 -6 7 -28 18 -49 26 -29 10 -40 10 -49 1
-7 -7 -20 -12 -29 -12 -17 0 -49 -40 -49 -60 0 -13 -101 -130 -112 -130 -12 0
-77 -73 -84 -95 -9 -26 -62 -87 -68 -77 -4 7 -1 60 4 87 1 6 2 27 1 48 l-1 37
-50 0 c-28 0 -58 -4 -68 -9 -9 -5 -48 -19 -87 -31 -38 -13 -83 -28 -100 -35
-16 -8 -57 -23 -89 -35 -33 -12 -74 -28 -90 -37 -60 -31 -66 -33 -94 -33 -16
0 -44 -10 -63 -23 -19 -12 -54 -31 -79 -42 -25 -10 -57 -27 -72 -37 -14 -10
-30 -18 -34 -18 -4 0 -15 -6 -23 -14 -29 -26 -91 -56 -115 -56 -12 0 -33 -11
-46 -25 -13 -14 -29 -25 -37 -25 -7 0 -13 -4 -13 -8 0 -5 -20 -19 -45 -32 -25
-13 -50 -29 -56 -37 -6 -7 -17 -13 -23 -13 -6 0 -17 -9 -24 -20 -7 -11 -20
-20 -30 -21 -9 0 -33 -11 -52 -25 -19 -13 -50 -34 -67 -45 -18 -12 -33 -26
-33 -32 0 -13 -60 -50 -68 -43 -2 3 9 18 27 33 17 15 31 33 31 39 0 13 76 89
89 89 10 0 91 72 91 81 0 12 83 84 96 84 8 0 42 28 76 63 35 34 80 73 101 86
21 12 43 28 50 35 6 6 23 17 37 23 14 7 43 24 65 38 22 14 48 28 58 31 9 4 17
10 17 15 0 5 7 9 16 9 9 0 29 11 46 25 16 14 38 25 49 25 10 0 19 5 19 10 0 6
17 10 38 10 60 1 74 18 70 88 -1 33 -1 58 1 56 6 -6 31 66 31 89 0 23 -14 20
-80 -14z m-1300 -1241 c-1 -19 -21 -41 -52 -57 -40 -20 -46 -6 -12 24 16 14
34 30 39 35 14 13 25 12 25 -2z"/>
<path d="M8620 7821 c0 -6 0 -217 0 -468 l0 -458 227 -3 c222 -3 253 0 337 31
78 29 145 134 146 230 0 42 -21 117 -32 117 -5 0 -8 6 -8 14 0 17 -62 71 -101
88 -28 12 -39 28 -20 28 18 0 80 69 96 106 19 47 19 121 -1 169 -18 43 -99
125 -123 125 -9 0 -22 5 -29 12 -17 17 -492 26 -492 9z m421 -111 c34 -7 63
-20 81 -37 50 -48 47 -154 -6 -200 -36 -31 -117 -45 -250 -41 l-118 3 1 134
c1 74 4 138 7 143 7 11 221 10 285 -2z m-12 -392 c75 -11 88 -16 121 -48 41
-39 56 -87 45 -149 -16 -94 -83 -121 -295 -121 l-150 0 0 165 0 165 97 0 c53
0 135 -6 182 -12z"/>
<path d="M10957 7823 c-4 -3 -7 -215 -7 -470 l0 -464 56 3 56 3 -1 126 -2 126
39 42 c27 29 44 40 55 35 10 -3 17 -10 17 -15 0 -12 52 -93 63 -97 4 -2 7 -10
7 -18 0 -8 5 -14 10 -14 6 0 10 -4 10 -9 0 -5 22 -42 50 -83 27 -40 50 -79 50
-85 0 -9 22 -13 76 -13 82 0 81 -1 38 57 -13 17 -24 36 -24 42 0 6 -4 11 -10
11 -5 0 -10 6 -10 14 0 8 -3 16 -7 18 -12 5 -113 156 -113 168 0 5 -4 10 -10
10 -5 0 -10 5 -10 10 0 6 -13 28 -29 51 -26 35 -32 69 -12 69 7 0 231 219 231
226 0 2 -31 4 -69 4 l-69 0 -132 -135 c-73 -74 -137 -132 -142 -129 -5 3 -9
22 -8 43 1 20 2 136 1 259 l-1 222 -48 0 c-27 0 -52 -3 -55 -7z"/>
<path d="M9688 7576 c-81 -18 -119 -36 -151 -70 -36 -38 -73 -114 -61 -126 5
-5 32 -10 59 -12 45 -3 50 -1 53 20 2 12 8 22 13 22 5 0 9 6 9 13 0 16 36 47
55 47 7 0 17 5 20 10 8 14 104 13 146 -2 19 -6 47 -24 62 -40 24 -25 28 -36
25 -75 l-3 -46 -55 -12 c-30 -7 -101 -20 -157 -29 -57 -9 -120 -26 -140 -37
-46 -25 -93 -72 -93 -93 0 -8 -4 -18 -10 -21 -5 -3 -10 -30 -10 -59 0 -113 98
-196 230 -196 24 0 60 5 79 11 55 18 141 60 141 70 0 5 9 9 20 9 14 0 20 -7
20 -23 0 -35 19 -47 77 -47 29 0 53 2 53 4 0 3 -5 17 -12 33 -7 17 -14 127
-18 278 -6 223 -9 254 -26 280 -35 56 -60 70 -155 90 -81 17 -94 17 -171 1z
m230 -426 c-4 -55 -11 -77 -32 -104 -31 -41 -120 -86 -170 -86 -50 0 -118 34
-133 67 -15 32 -17 83 -3 83 6 0 10 6 10 13 0 25 73 51 220 80 122 23 113 28
108 -53z"/>
<path d="M10471 7574 c-52 -14 -96 -39 -121 -68 -18 -22 -30 -10 -30 30 l0 35
-47 -3 -48 -3 -3 -337 -2 -338 54 0 54 0 4 228 c3 211 5 230 25 272 47 95 193
125 260 54 37 -40 43 -88 43 -326 l0 -228 55 0 55 0 0 265 c0 250 -1 268 -21
311 -28 58 -73 92 -146 109 -70 17 -65 17 -132 -1z"/>
<path d="M8627 6633 c-4 -3 -7 -215 -7 -470 l0 -463 95 0 95 0 0 141 0 141 75
74 c41 41 79 74 84 74 5 0 11 -8 14 -17 6 -18 48 -94 57 -103 4 -4 24 -39 54
-95 6 -11 13 -22 16 -25 8 -8 28 -43 47 -80 9 -19 19 -37 22 -40 4 -3 14 -18
23 -35 l17 -30 128 -2 c70 -1 122 1 116 3 -7 3 -13 10 -13 16 0 6 -11 26 -25
44 -14 18 -25 37 -25 43 0 6 -4 11 -10 11 -5 0 -10 6 -10 14 0 8 -3 16 -7 18
-11 4 -63 86 -63 98 0 5 -3 10 -8 10 -4 0 -16 16 -26 35 -11 19 -23 35 -28 35
-4 0 -8 5 -8 10 0 12 -52 94 -62 98 -5 2 -8 8 -8 13 0 6 -5 15 -10 22 -19 22
-60 88 -60 95 0 7 97 109 272 290 l81 82 -128 0 -127 0 -37 -42 c-20 -23 -61
-67 -91 -98 -30 -31 -80 -85 -110 -121 -56 -65 -137 -149 -145 -149 -2 0 -4
88 -4 195 0 108 -3 200 -6 205 -7 11 -168 14 -178 3z"/>
<path d="M12350 6171 l0 -471 95 0 95 0 0 196 0 197 64 -5 c73 -6 111 -25 146
-74 14 -20 31 -41 38 -49 6 -7 12 -18 12 -24 0 -6 5 -11 10 -11 6 0 10 -5 10
-10 0 -12 101 -163 113 -168 4 -2 7 -8 7 -14 0 -30 30 -38 139 -38 l111 0 -12
22 c-7 12 -16 27 -21 32 -37 53 -77 117 -77 126 0 5 -4 10 -10 10 -5 0 -10 5
-10 10 0 12 -74 115 -105 145 -11 11 -32 28 -47 38 -32 20 -36 37 -9 37 29 0
102 34 138 64 54 45 68 87 68 200 0 71 -4 101 -12 104 -7 2 -13 8 -13 14 0 27
-55 80 -108 104 -56 26 -60 27 -339 32 l-283 5 0 -472z m516 289 c49 -31 68
-106 41 -159 -25 -50 -59 -59 -219 -60 l-148 -1 0 121 0 121 153 -4 c104 -3
159 -8 173 -18z"/>
<path d="M14030 6170 l0 -470 85 0 85 0 0 176 c0 216 12 295 53 335 16 16 37
29 48 29 10 0 19 5 19 10 0 14 36 13 77 -2 23 -9 39 -24 53 -53 18 -38 20 -62
20 -268 l0 -227 85 0 85 0 0 268 c-1 255 -2 269 -23 312 -41 84 -156 132 -256
105 -54 -14 -78 -27 -120 -64 -13 -11 -28 -21 -33 -21 -4 0 -8 77 -8 170 l0
170 -85 0 -85 0 0 -470z"/>
<path d="M16065 6607 c-4 -19 -5 -56 -3 -83 l3 -49 93 -3 93 -3 -3 83 -3 83
-87 3 -87 3 -6 -34z"/>
<path d="M10955 6594 c-11 -8 -46 -29 -77 -46 l-58 -31 0 -68 0 -69 -38 0
c-21 0 -43 -5 -49 -11 -7 -7 -17 -7 -29 -1 -78 40 -138 31 -196 -30 -20 -21
-41 -38 -47 -38 -6 0 -11 18 -11 40 l0 40 -80 0 -80 0 0 -340 0 -340 89 0 89
0 4 213 c5 220 11 252 52 290 29 26 62 31 108 17 47 -13 51 -10 70 55 17 60
28 65 28 13 0 -50 9 -58 61 -58 l29 0 0 -215 c0 -257 6 -277 89 -318 38 -19
166 -24 176 -7 3 6 15 10 26 10 17 0 19 7 19 58 0 31 -4 62 -8 69 -4 7 -27 11
-55 10 -33 -1 -51 3 -57 13 -5 8 -10 97 -10 198 l0 182 28 1 c15 1 41 2 57 3
l30 1 3 73 3 72 -61 0 -60 0 0 115 c0 122 -4 130 -45 99z"/>
<path d="M9765 6386 c-62 -16 -103 -37 -142 -73 -38 -36 -83 -107 -83 -132 0
-11 -4 -23 -10 -26 -6 -4 -10 -55 -10 -120 0 -65 4 -116 10 -120 6 -3 10 -16
10 -27 0 -25 50 -106 84 -135 142 -124 408 -83 489 74 27 51 23 60 -30 67 -27
2 -65 8 -85 12 -31 5 -38 3 -38 -10 0 -9 -4 -16 -10 -16 -5 0 -10 -5 -10 -11
0 -26 -45 -48 -97 -49 -48 0 -56 3 -91 38 -37 37 -60 100 -46 124 3 4 104 8
225 8 l219 0 0 48 c-1 76 -42 222 -62 222 -5 0 -8 5 -8 10 0 34 -110 103 -181
114 -24 4 -53 9 -64 11 -11 2 -42 -2 -70 -9z m124 -148 c48 -26 67 -51 75
-101 l6 -37 -135 0 -134 0 6 33 c11 61 32 88 84 111 46 20 51 19 98 -6z"/>
<path d="M11470 6390 c-14 -4 -39 -8 -56 -9 -38 -1 -93 -27 -117 -55 -50 -58
-57 -67 -57 -80 0 -8 -5 -18 -10 -21 -17 -11 9 -35 38 -35 13 0 43 -5 65 -12
38 -12 40 -11 66 20 29 36 73 62 104 62 12 0 41 -7 64 -16 36 -14 44 -22 49
-50 9 -48 0 -62 -43 -69 -21 -3 -46 -10 -55 -16 -10 -5 -30 -9 -45 -9 -26 0
-53 -7 -140 -37 -96 -33 -148 -134 -122 -236 31 -125 187 -183 326 -121 32 14
67 34 78 44 21 20 21 20 34 -15 l12 -35 89 0 88 0 -19 52 c-16 46 -19 81 -19
266 0 227 -5 259 -52 304 -40 39 -71 55 -123 61 -27 3 -68 8 -90 11 -22 3 -51
1 -65 -4z m156 -416 c1 -84 -32 -134 -102 -158 -38 -13 -49 -13 -78 -1 -18 8
-40 25 -50 39 -46 71 6 120 169 155 55 12 60 10 61 -35z"/>
<path d="M13485 6385 c-33 -6 -73 -17 -90 -24 -36 -15 -105 -88 -105 -112 0
-10 -5 -21 -10 -24 -19 -12 10 -35 43 -35 17 0 45 -5 63 -12 34 -12 45 -6 70
37 6 11 21 21 33 23 11 2 21 8 21 13 0 16 83 9 115 -10 30 -18 52 -67 42 -95
-3 -8 -23 -18 -44 -21 -21 -3 -46 -10 -55 -16 -10 -5 -30 -9 -45 -9 -26 0 -53
-7 -140 -37 -125 -43 -176 -206 -93 -301 45 -52 111 -82 181 -82 32 0 67 4 77
9 9 5 28 14 42 20 14 6 41 20 60 31 l35 20 13 -30 12 -30 85 0 85 0 -6 28 c-4
15 -11 31 -15 36 -5 6 -9 105 -9 220 0 285 -16 337 -111 378 -30 14 -168 40
-187 37 -4 -1 -34 -7 -67 -14z m178 -441 c-1 -64 -4 -71 -33 -96 -43 -35 -99
-49 -136 -33 -65 28 -84 94 -40 136 23 22 176 71 201 65 6 -2 9 -33 8 -72z"/>
<path d="M15025 6388 c-112 -22 -157 -53 -199 -137 -29 -56 -29 -56 39 -65 22
-3 54 -7 70 -11 26 -5 33 -1 50 27 29 46 88 65 148 49 50 -14 71 -41 65 -87
-3 -25 -9 -31 -53 -43 -27 -7 -68 -16 -90 -18 -22 -3 -44 -9 -49 -14 -6 -5
-20 -9 -33 -9 -24 0 -96 -30 -101 -42 -2 -5 -9 -8 -16 -8 -7 0 -19 -11 -26
-25 -7 -14 -17 -25 -22 -25 -4 0 -8 -9 -8 -19 0 -11 -4 -23 -10 -26 -14 -9
-12 -73 3 -115 30 -88 109 -140 213 -140 35 0 72 4 82 9 65 32 89 46 108 62
20 19 20 19 34 -16 l14 -35 88 0 88 0 -17 38 c-14 31 -18 76 -20 267 -2 138
-8 240 -15 255 -6 14 -15 35 -21 47 -14 31 -99 69 -185 82 -40 6 -76 10 -80
10 -4 -1 -29 -6 -57 -11z m175 -433 c0 -62 -2 -68 -36 -103 -33 -34 -40 -36
-94 -37 -72 0 -101 22 -103 79 -1 41 30 78 73 89 67 16 146 35 153 36 4 1 7
-28 7 -64z"/>
<path d="M15840 6387 c-19 -6 -52 -28 -72 -49 -20 -21 -39 -38 -42 -38 -3 0
-6 12 -6 28 0 48 -10 53 -91 50 l-74 -3 -3 -337 -2 -338 90 0 90 0 0 153 c1
251 21 343 81 367 27 12 74 10 110 -4 10 -5 20 4 32 29 9 20 17 42 17 50 0 9
6 24 12 35 11 16 9 22 -7 34 -11 8 -31 17 -45 20 -14 2 -32 7 -40 9 -8 3 -31
0 -50 -6z"/>
<path d="M16620 6386 c-73 -14 -106 -29 -133 -60 -10 -12 -27 -31 -38 -44 -10
-12 -19 -28 -19 -35 0 -7 -5 -18 -11 -24 -18 -18 -1 -33 38 -33 20 0 51 -5 69
-12 27 -9 35 -9 48 5 9 8 16 18 16 22 0 11 23 30 53 43 64 28 145 -1 163 -58
8 -23 8 -39 2 -47 -10 -13 -78 -32 -143 -40 -22 -3 -44 -9 -49 -14 -6 -5 -20
-9 -32 -9 -36 0 -110 -36 -142 -69 -29 -31 -52 -89 -52 -131 0 -109 98 -200
217 -200 69 0 114 14 174 56 l46 32 12 -34 12 -34 85 0 86 0 -7 33 c-4 17 -11
36 -16 41 -5 6 -9 110 -9 232 0 196 -2 227 -19 266 -28 64 -74 97 -151 109
-104 16 -138 17 -200 5z m193 -379 c5 -14 1 -66 -9 -107 -7 -30 -58 -80 -82
-80 -10 0 -23 -5 -28 -10 -15 -15 -75 7 -101 39 -13 14 -23 38 -23 52 0 32 40
75 78 82 15 3 54 12 87 20 33 8 63 15 66 16 4 1 9 -5 12 -12z"/>
<path d="M16066 6363 c-4 -9 -6 -180 -5 -380 1 -407 4 -389 -72 -395 -43 -3
-44 -4 -51 -43 -4 -22 -10 -54 -14 -71 -5 -29 -3 -32 27 -43 75 -26 195 -6
242 41 51 51 52 63 52 498 l0 405 -86 3 c-74 2 -88 0 -93 -15z"/>
</g>
</svg>
